# xmcd CD database file
#
# Track frame offsets:
#	150
#	41861
#	57557
#	100943
#	144532
#	175866
#	198674
#	248287
#	286393
#
# Disc length: 4260 seconds
#
# Revision: 0
# Processed by: cddbd v1.5.2PL0 Copyright (c) Steve Scherf et al.
# Submitted via: CDex 1.51
#
DISCID=8410a209
DTITLE=Wes Montgomery - Full House - The Complete Session CD1
DYEAR=1962
DGENRE=Jazz
TTITLE0=Full House
TTITLE1=I've Grown Accustomed To Her Face
TTITLE2=Blue 'N' Boogie
TTITLE3=Cariba
TTITLE4=Come Rain Or Come Shine
TTITLE5=S.O.S.
TTITLE6=Blue 'N' Boogie (Alt.)
TTITLE7=Cariba (Alt.)
TTITLE8=Come Rain Or Come Shine (Alt.)
EXTD=YEAR: 1962
EXTT0=
EXTT1=
EXTT2=
EXTT3=
EXTT4=
EXTT5=
EXTT6=
EXTT7=
EXTT8=
PLAYORDER=
